PathFileType	4	(X/Y/Z)	 2.6Hz3min.trc
DataRate	CameraRate	NumFrames	NumMarkers	Units	OrigDataRate	OrigDataStartFrame	OrigNumFrames
200	200	8	35	m	200	1	1000
Frame#	Time	C7			LSH			RSH			MAN			RASI			LASI			HIPR			HIPL			RPSI			LPSI			COX			RTHI1			RTHI2			RTHI3			RTHI4			RSHA1			RSHA2			RSHA3			RSHA4			RHEEL			RMET5			RMET1			RTOE			LTHI1			LTHI2			LTHI3			LTHI4			LSHA1			LSHA2			LSHA3			LSHA4			LHEEL			LMET5			LMET1			LTOE			
		X1	Y1	Z1	X2	Y2	Z2	X3	Y3	Z3	X4	Y4	Z4	X5	Y5	Z5	X6	Y6	Z6	X7	Y7	Z7	X8	Y8	Z8	X9	Y9	Z9	X10	Y10	Z10	X11	Y11	Z11	X12	Y12	Z12	X13	Y13	Z13	X14	Y14	Z14	X15	Y15	Z15	X16	Y16	Z16	X17	Y17	Z17	X18	Y18	Z18	X19	Y19	Z19	X20	Y20	Z20	X21	Y21	Z21	X22	Y22	Z22	X23	Y23	Z23	X24	Y24	Z24	X25	Y25	Z25	X26	Y26	Z26	X27	Y27	Z27	X28	Y28	Z28	X29	Y29	Z29	X30	Y30	Z30	X31	Y31	Z31	X32	Y32	Z32	X33	Y33	Z33	X34	Y34	Z34	X35	Y35	Z35	
1	0.0050	-0.290758	1.468780	-0.551223	-0.218648	1.465393	-0.722464	-0.230118	1.441887	-0.381692	-0.167948	1.423331	-0.552335	-0.140933	1.022478	-0.444648	-0.139870	1.023452	-0.658984	-0.206784	1.067361	-0.408320	-0.191720	1.081703	-0.689757	-0.303383	1.061352	-0.498391	-0.300976	1.062757	-0.603384	-0.306439	1.070220	-0.553745	-0.259631	0.822581	-0.388321	-0.239878	0.766356	-0.382529	-0.180027	0.784558	-0.366238	-0.191977	0.844876	-0.369154	-0.261406	0.416997	-0.363523	-0.272032	0.375389	-0.368964	-0.211826	0.366715	-0.365515	-0.205209	0.406843	-0.364933	-0.339131	0.154028	-0.416107	-0.214793	0.068507	-0.353811	-0.175856	0.066503	-0.420021	-0.155012	0.057655	-0.416510	-0.236096	0.801237	-0.730464	-0.205898	0.747640	-0.734261	-0.146438	0.774839	-0.735752	-0.169584	0.829954	-0.732826	-0.276528	0.396363	-0.744961	-0.291752	0.358571	-0.743121	-0.231554	0.341018	-0.747432	-0.223803	0.384593	-0.748456	-0.362478	0.152528	-0.707654	-0.231183	0.077132	-0.764828	-0.197115	0.075446	-0.700298	-0.175630	0.066119	-0.704813	
2	0.0100	-0.291009	1.466811	-0.551267	-0.218914	1.463029	-0.722723	-0.230395	1.439411	-0.381479	-0.168212	1.421149	-0.552355	-0.141242	1.020671	-0.444639	-0.140314	1.021426	-0.659176	-0.207299	1.065495	-0.408332	-0.192345	1.079459	-0.689890	-0.303854	1.059017	-0.498366	-0.301448	1.060200	-0.603454	-0.307157	1.067295	-0.553109	-0.259078	0.820679	-0.387842	-0.239114	0.764545	-0.382179	-0.179204	0.782889	-0.366407	-0.191386	0.843234	-0.369228	-0.261166	0.415535	-0.363745	-0.272172	0.374116	-0.369222	-0.212014	0.364979	-0.365939	-0.205105	0.405036	-0.365199	-0.340905	0.153095	-0.416524	-0.216521	0.067185	-0.354894	-0.177669	0.065333	-0.421420	-0.156880	0.056416	-0.417958	-0.235535	0.799169	-0.730653	-0.205083	0.745705	-0.734264	-0.145738	0.773146	-0.735252	-0.169124	0.828150	-0.732497	-0.276397	0.394884	-0.745190	-0.291922	0.357259	-0.743365	-0.231822	0.339264	-0.747295	-0.223722	0.382696	-0.748363	-0.364484	0.151538	-0.707802	-0.233092	0.075615	-0.764054	-0.199208	0.074310	-0.699392	-0.177714	0.064855	-0.703711	
3	0.0150	-0.291237	1.464523	-0.551311	-0.219152	1.460412	-0.722968	-0.230679	1.436690	-0.381240	-0.168519	1.418694	-0.552392	-0.141567	1.018660	-0.444655	-0.140762	1.019121	-0.659348	-0.207833	1.063378	-0.408348	-0.192916	1.076916	-0.690018	-0.304328	1.056417	-0.498337	-0.301881	1.057379	-0.603586	-0.307272	1.064422	-0.553021	-0.258416	0.818553	-0.387339	-0.238240	0.762475	-0.381860	-0.178268	0.780974	-0.366586	-0.190657	0.841307	-0.369301	-0.260959	0.413884	-0.363822	-0.272283	0.372557	-0.369476	-0.212161	0.362987	-0.366308	-0.204963	0.402983	-0.365453	-0.342633	0.151935	-0.416939	-0.218314	0.065491	-0.356152	-0.179546	0.063867	-0.422955	-0.158848	0.054859	-0.419553	-0.234848	0.796886	-0.730851	-0.204162	0.743554	-0.734281	-0.144918	0.771203	-0.734741	-0.168528	0.826111	-0.732126	-0.276290	0.393153	-0.745446	-0.292107	0.355691	-0.743611	-0.232125	0.337228	-0.747148	-0.223662	0.380531	-0.748300	-0.366492	0.150369	-0.707940	-0.235062	0.073804	-0.763225	-0.201369	0.072943	-0.698478	-0.179870	0.063289	-0.702562	
4	0.0200	-0.291464	1.462162	-0.551361	-0.219375	1.457721	-0.723212	-0.230956	1.433909	-0.381024	-0.168824	1.416173	-0.552432	-0.141898	1.016578	-0.444676	-0.141210	1.016741	-0.659514	-0.208364	1.061180	-0.408362	-0.193474	1.074297	-0.690145	-0.304806	1.053745	-0.498311	-0.302323	1.054498	-0.603696	-0.307445	1.061500	-0.552964	-0.257728	0.816355	-0.386837	-0.237342	0.760326	-0.381541	-0.177305	0.778983	-0.366772	-0.189900	0.839301	-0.369376	-0.260727	0.412155	-0.363898	-0.272370	0.370927	-0.369708	-0.212295	0.360917	-0.366684	-0.204810	0.400864	-0.365700	-0.344381	0.150738	-0.417355	-0.220130	0.063704	-0.357440	-0.181462	0.062319	-0.424513	-0.160844	0.053218	-0.421189	-0.234129	0.794539	-0.731054	-0.203220	0.741333	-0.734295	-0.144076	0.769180	-0.734219	-0.167903	0.823996	-0.731741	-0.276182	0.391357	-0.745695	-0.292297	0.354051	-0.743852	-0.232438	0.335121	-0.747002	-0.223611	0.378301	-0.748240	-0.368501	0.149143	-0.708068	-0.237054	0.071910	-0.762382	-0.203554	0.071484	-0.697550	-0.182053	0.061649	-0.701409	
5	0.0250	-0.291679	1.459555	-0.551419	-0.219562	1.454809	-0.723449	-0.231223	1.430930	-0.380827	-0.169116	1.413452	-0.552484	-0.142246	1.014309	-0.444714	-0.141665	1.014137	-0.659660	-0.208896	1.058761	-0.408378	-0.193992	1.071441	-0.690266	-0.305289	1.050856	-0.498287	-0.302762	1.051410	-0.603803	-0.307452	1.058516	-0.553134	-0.256958	0.813947	-0.386322	-0.236369	0.757949	-0.381226	-0.176259	0.776767	-0.366972	-0.189050	0.837057	-0.369455	-0.260475	0.410236	-0.363903	-0.272417	0.369078	-0.369906	-0.212393	0.358620	-0.367044	-0.204615	0.398525	-0.365944	-0.346128	0.149374	-0.417775	-0.222008	0.061623	-0.358847	-0.183449	0.060521	-0.426169	-0.162926	0.051311	-0.422944	-0.233314	0.792001	-0.731264	-0.202201	0.738911	-0.734313	-0.143152	0.766931	-0.733674	-0.167181	0.821667	-0.731323	-0.276085	0.389355	-0.745950	-0.292498	0.352197	-0.744086	-0.232776	0.332789	-0.746854	-0.223582	0.375854	-0.748196	-0.370509	0.147754	-0.708171	-0.239099	0.069775	-0.761504	-0.205796	0.069792	-0.696597	-0.184302	0.059769	-0.700233	
6	0.0300	-0.291894	1.456745	-0.551493	-0.219716	1.451693	-0.723680	-0.231473	1.427787	-0.380672	-0.169377	1.410541	-0.552553	-0.142604	1.011838	-0.444773	-0.142116	1.011322	-0.659789	-0.209407	1.056111	-0.408396	-0.194476	1.068377	-0.690379	-0.305777	1.047765	-0.498271	-0.303230	1.048147	-0.603854	-0.307647	1.055352	-0.553244	-0.256112	0.811327	-0.385823	-0.235330	0.755350	-0.380928	-0.175140	0.774325	-0.367182	-0.188126	0.834591	-0.369542	-0.260163	0.408095	-0.363957	-0.272381	0.367052	-0.370025	-0.212456	0.356120	-0.367414	-0.204375	0.395974	-0.366233	-0.347915	0.147882	-0.418201	-0.223952	0.059281	-0.360327	-0.185547	0.058491	-0.427860	-0.165088	0.049161	-0.424792	-0.232422	0.789282	-0.731480	-0.201121	0.736301	-0.734327	-0.142173	0.764465	-0.733108	-0.166382	0.819131	-0.730877	-0.275989	0.387159	-0.746189	-0.292713	0.350145	-0.744305	-0.233137	0.330261	-0.746707	-0.223574	0.373229	-0.748155	-0.372518	0.146221	-0.708238	-0.241204	0.067427	-0.760593	-0.208107	0.067845	-0.695600	-0.186621	0.057683	-0.699051	
7	0.0350	-0.292105	1.453687	-0.551580	-0.219824	1.448337	-0.723908	-0.231703	1.424441	-0.380575	-0.169602	1.407402	-0.552631	-0.142985	1.009143	-0.444847	-0.142573	1.008271	-0.659897	-0.209920	1.053214	-0.408409	-0.194932	1.065074	-0.690482	-0.306270	1.044437	-0.498264	-0.303732	1.044682	-0.603845	-0.307904	1.051998	-0.553376	-0.255201	0.808455	-0.385322	-0.234235	0.752500	-0.380623	-0.173956	0.771631	-0.367389	-0.187143	0.831869	-0.369634	-0.259808	0.405720	-0.363995	-0.272297	0.364783	-0.370091	-0.212483	0.353373	-0.367794	-0.204096	0.393195	-0.366507	-0.349728	0.146222	-0.418635	-0.225971	0.056639	-0.361882	-0.187757	0.056188	-0.429605	-0.167340	0.046721	-0.426735	-0.231452	0.786333	-0.731701	-0.199985	0.733448	-0.734338	-0.141135	0.761733	-0.732517	-0.165508	0.816339	-0.730413	-0.275894	0.384742	-0.746415	-0.292932	0.347866	-0.744503	-0.233512	0.327502	-0.746568	-0.223582	0.370376	-0.748123	-0.374517	0.144512	-0.708273	-0.243365	0.064833	-0.759669	-0.210476	0.065622	-0.694592	-0.189009	0.055343	-0.697870	
8	0.0400	-0.292310	1.450382	-0.551679	-0.219891	1.444742	-0.724133	-0.231928	1.420884	-0.380533	-0.169766	1.404055	-0.552714	-0.143388	1.006214	-0.444938	-0.143033	1.004985	-0.659988	-0.210429	1.050068	-0.408420	-0.195366	1.061543	-0.690572	-0.306766	1.040875	-0.498260	-0.304268	1.041005	-0.603783	-0.308267	1.048412	-0.553506	-0.254245	0.805318	-0.384816	-0.233098	0.749391	-0.380318	-0.172730	0.768669	-0.367590	-0.186116	0.828884	-0.369736	-0.259390	0.403106	-0.364050	-0.272167	0.362276	-0.370107	-0.212471	0.350373	-0.368191	-0.203769	0.390142	-0.366835	-0.351561	0.144379	-0.419076	-0.228069	0.053698	-0.363485	-0.190065	0.053604	-0.431393	-0.169681	0.043979	-0.428748	-0.230428	0.783132	-0.731918	-0.198808	0.730334	-0.734342	-0.140060	0.758732	-0.731920	-0.164578	0.813282	-0.729937	-0.275792	0.382097	-0.746616	-0.293149	0.345362	-0.744677	-0.233895	0.324514	-0.746441	-0.223599	0.367298	-0.748096	-0.376495	0.142625	-0.708273	-0.245580	0.062002	-0.758748	-0.212900	0.063110	-0.693584	-0.191459	0.052731	-0.696710	
